<svg width="20" height="21" viewBox="0 0 20 21" fill="none" xmlns="http://www.w3.org/2000/svg">
<path d="M19.7029 4.32473C19.0071 4.63308 18.2596 4.84143 17.4737 4.9356C18.2846 4.4504 18.8912 3.68674 19.1804 2.78712C18.4186 3.23964 17.5849 3.55817 16.7154 3.72885C16.1307 3.10453 15.3563 2.69072 14.5124 2.55166C13.6684 2.41261 12.8022 2.5561 12.0481 2.95984C11.2941 3.36359 10.6944 4.00501 10.3422 4.78451C9.99003 5.56402 9.90503 6.438 10.1004 7.27077C8.55682 7.19326 7.04677 6.79202 5.66827 6.0931C4.28977 5.39419 3.07362 4.4132 2.09875 3.21382C1.76542 3.78886 1.57375 4.45557 1.57375 5.16562C1.57338 5.80483 1.73078 6.43424 2.03198 6.99802C2.33319 7.56181 2.76888 8.04252 3.30042 8.39751C2.68398 8.3779 2.08114 8.21132 1.54208 7.91164V7.96165C1.54202 8.85816 1.85211 9.72709 2.41974 10.421C2.98736 11.1149 3.77756 11.591 4.65625 11.7686C4.0844 11.9234 3.48486 11.9462 2.90292 11.8353C3.15083 12.6067 3.63375 13.2812 4.28406 13.7645C4.93437 14.2478 5.71951 14.5156 6.52958 14.5304C5.15444 15.61 3.45616 16.1956 1.70792 16.1931C1.39823 16.1931 1.08881 16.1751 0.78125 16.1389C2.55581 17.2799 4.62153 17.8855 6.73125 17.8832C13.8729 17.8832 17.7771 11.9678 17.7771 6.8374C17.7771 6.67072 17.7729 6.50238 17.7654 6.3357C18.5248 5.78647 19.1803 5.10636 19.7013 4.32723L19.7029 4.32473Z" fill="#EB8347"/>
</svg>
