<svg width="214" height="60" viewBox="0 0 214 60" fill="none" xmlns="http://www.w3.org/2000/svg">
<path d="M0 59.2064V0.722656H25.4874V8.9537H11.8412V24.4772H22.3827V32.7804H11.8412V51.1198H25.6318V59.2064H0Z" fill="#626ECA"/>
<path d="M73.3281 60V0H87.9808C97.939 0 105.621 2.88889 105.621 15.5556C105.621 22.8148 102.562 26.8148 97.2277 27.7778C103.985 28.8148 107.328 33.8519 107.328 42.3704C107.328 54.3704 101.424 60 90.5415 60H73.3281ZM84.9934 24.2222H87.9808C93.9557 24.2222 95.3783 21.3333 95.3783 15.8519C95.3783 10.3704 92.6754 8.37037 87.1984 8.37037H84.9934V24.2222ZM84.9934 51.4074H88.3365C94.2402 51.4074 96.0896 48.3704 96.0896 42.1482C96.0896 35.3333 94.0269 32.4444 88.1231 32.4444H84.9934V51.4074Z" fill="#626ECA"/>
<path d="M50.4479 60C37.3071 60 33.3359 52.2022 33.3359 40.5054V19.5668C33.3359 7.50903 37.3071 0 50.4479 0C63.011 0 66.8377 6.78701 66.8377 16.8953V21.8051H55.2854V16.3899C55.2854 12.2744 55.141 8.51986 50.52 8.51986C45.7547 8.51986 45.3937 12.4188 45.3937 16.7509V43.3213C45.3937 48.3033 46.3323 51.4802 50.52 51.4802C55.0688 51.4802 55.2854 47.5812 55.2854 43.3213V37.6173H66.8377V42.4549C66.8377 52.6354 63.2276 60 50.4479 60Z" fill="#626ECA"/>
<path d="M115.73 5.146V8.818H120.05V10.492H115.73V14.326H120.59V16H113.678V3.472H120.59V5.146H115.73ZM133.54 3.49L128.842 16H126.466L121.75 3.49H123.946L127.654 13.894L131.38 3.49H133.54ZM136.948 5.146V8.818H141.268V10.492H136.948V14.326H141.808V16H134.896V3.472H141.808V5.146H136.948ZM150.473 16L147.593 10.996H146.027V16H143.975V3.49H148.295C149.255 3.49 150.065 3.658 150.725 3.994C151.397 4.33 151.895 4.78 152.219 5.344C152.555 5.908 152.723 6.538 152.723 7.234C152.723 8.05 152.483 8.794 152.003 9.466C151.535 10.126 150.809 10.576 149.825 10.816L152.921 16H150.473ZM146.027 9.358H148.295C149.063 9.358 149.639 9.166 150.023 8.782C150.419 8.398 150.617 7.882 150.617 7.234C150.617 6.586 150.425 6.082 150.041 5.722C149.657 5.35 149.075 5.164 148.295 5.164H146.027V9.358ZM164.258 3.49L160.118 11.464V16H158.066V11.464L153.908 3.49H156.194L159.092 9.628L161.99 3.49H164.258ZM171.233 16.126C170.069 16.126 168.995 15.856 168.011 15.316C167.039 14.764 166.265 14.002 165.689 13.03C165.125 12.046 164.843 10.942 164.843 9.718C164.843 8.494 165.125 7.396 165.689 6.424C166.265 5.452 167.039 4.696 168.011 4.156C168.995 3.604 170.069 3.328 171.233 3.328C172.409 3.328 173.483 3.604 174.455 4.156C175.439 4.696 176.213 5.452 176.777 6.424C177.341 7.396 177.623 8.494 177.623 9.718C177.623 10.942 177.341 12.046 176.777 13.03C176.213 14.002 175.439 14.764 174.455 15.316C173.483 15.856 172.409 16.126 171.233 16.126ZM171.233 14.344C172.061 14.344 172.799 14.158 173.447 13.786C174.095 13.402 174.599 12.862 174.959 12.166C175.331 11.458 175.517 10.642 175.517 9.718C175.517 8.794 175.331 7.984 174.959 7.288C174.599 6.592 174.095 6.058 173.447 5.686C172.799 5.314 172.061 5.128 171.233 5.128C170.405 5.128 169.667 5.314 169.019 5.686C168.371 6.058 167.861 6.592 167.489 7.288C167.129 7.984 166.949 8.794 166.949 9.718C166.949 10.642 167.129 11.458 167.489 12.166C167.861 12.862 168.371 13.402 169.019 13.786C169.667 14.158 170.405 14.344 171.233 14.344ZM189.56 16H187.508L181.334 6.658V16H179.282V3.472H181.334L187.508 12.796V3.472H189.56V16ZM193.946 5.146V8.818H198.266V10.492H193.946V14.326H198.806V16H191.894V3.472H198.806V5.146H193.946ZM112.994 29.718C112.994 28.494 113.276 27.396 113.84 26.424C114.416 25.452 115.19 24.696 116.162 24.156C117.146 23.604 118.22 23.328 119.384 23.328C120.716 23.328 121.898 23.658 122.93 24.318C123.974 24.966 124.73 25.89 125.198 27.09H122.732C122.408 26.43 121.958 25.938 121.382 25.614C120.806 25.29 120.14 25.128 119.384 25.128C118.556 25.128 117.818 25.314 117.17 25.686C116.522 26.058 116.012 26.592 115.64 27.288C115.28 27.984 115.1 28.794 115.1 29.718C115.1 30.642 115.28 31.452 115.64 32.148C116.012 32.844 116.522 33.384 117.17 33.768C117.818 34.14 118.556 34.326 119.384 34.326C120.14 34.326 120.806 34.164 121.382 33.84C121.958 33.516 122.408 33.024 122.732 32.364H125.198C124.73 33.564 123.974 34.488 122.93 35.136C121.898 35.784 120.716 36.108 119.384 36.108C118.208 36.108 117.134 35.838 116.162 35.298C115.19 34.746 114.416 33.984 113.84 33.012C113.276 32.04 112.994 30.942 112.994 29.718ZM134.782 33.444H129.544L128.644 36H126.502L130.984 23.472H133.36L137.842 36H135.682L134.782 33.444ZM134.206 31.77L132.172 25.956L130.12 31.77H134.206ZM149.709 36H147.657L141.483 26.658V36H139.431V23.472H141.483L147.657 32.796V23.472H149.709V36ZM120.374 49.574C121.046 49.694 121.616 50.048 122.084 50.636C122.552 51.224 122.786 51.89 122.786 52.634C122.786 53.27 122.618 53.846 122.282 54.362C121.958 54.866 121.484 55.268 120.86 55.568C120.236 55.856 119.51 56 118.682 56H113.678V43.49H118.448C119.3 43.49 120.032 43.634 120.644 43.922C121.256 44.21 121.718 44.6 122.03 45.092C122.342 45.572 122.498 46.112 122.498 46.712C122.498 47.432 122.306 48.032 121.922 48.512C121.538 48.992 121.022 49.346 120.374 49.574ZM115.73 48.746H118.268C118.94 48.746 119.462 48.596 119.834 48.296C120.218 47.984 120.41 47.54 120.41 46.964C120.41 46.4 120.218 45.962 119.834 45.65C119.462 45.326 118.94 45.164 118.268 45.164H115.73V48.746ZM118.502 54.326C119.198 54.326 119.744 54.158 120.14 53.822C120.536 53.486 120.734 53.018 120.734 52.418C120.734 51.806 120.524 51.32 120.104 50.96C119.684 50.6 119.126 50.42 118.43 50.42H115.73V54.326H118.502ZM130.362 56.126C129.198 56.126 128.124 55.856 127.14 55.316C126.168 54.764 125.394 54.002 124.818 53.03C124.254 52.046 123.972 50.942 123.972 49.718C123.972 48.494 124.254 47.396 124.818 46.424C125.394 45.452 126.168 44.696 127.14 44.156C128.124 43.604 129.198 43.328 130.362 43.328C131.538 43.328 132.612 43.604 133.584 44.156C134.568 44.696 135.342 45.452 135.906 46.424C136.47 47.396 136.752 48.494 136.752 49.718C136.752 50.942 136.47 52.046 135.906 53.03C135.342 54.002 134.568 54.764 133.584 55.316C132.612 55.856 131.538 56.126 130.362 56.126ZM130.362 54.344C131.19 54.344 131.928 54.158 132.576 53.786C133.224 53.402 133.728 52.862 134.088 52.166C134.46 51.458 134.646 50.642 134.646 49.718C134.646 48.794 134.46 47.984 134.088 47.288C133.728 46.592 133.224 46.058 132.576 45.686C131.928 45.314 131.19 45.128 130.362 45.128C129.534 45.128 128.796 45.314 128.148 45.686C127.5 46.058 126.99 46.592 126.618 47.288C126.258 47.984 126.078 48.794 126.078 49.718C126.078 50.642 126.258 51.458 126.618 52.166C126.99 52.862 127.5 53.402 128.148 53.786C128.796 54.158 129.534 54.344 130.362 54.344ZM144.909 56L142.029 50.996H140.463V56H138.411V43.49H142.731C143.691 43.49 144.501 43.658 145.161 43.994C145.833 44.33 146.331 44.78 146.655 45.344C146.991 45.908 147.159 46.538 147.159 47.234C147.159 48.05 146.919 48.794 146.439 49.466C145.971 50.126 145.245 50.576 144.261 50.816L147.357 56H144.909ZM140.463 49.358H142.731C143.499 49.358 144.075 49.166 144.459 48.782C144.855 48.398 145.053 47.882 145.053 47.234C145.053 46.586 144.861 46.082 144.477 45.722C144.093 45.35 143.511 45.164 142.731 45.164H140.463V49.358ZM155.922 56L153.042 50.996H151.476V56H149.424V43.49H153.744C154.704 43.49 155.514 43.658 156.174 43.994C156.846 44.33 157.344 44.78 157.668 45.344C158.004 45.908 158.172 46.538 158.172 47.234C158.172 48.05 157.932 48.794 157.452 49.466C156.984 50.126 156.258 50.576 155.274 50.816L158.37 56H155.922ZM151.476 49.358H153.744C154.512 49.358 155.088 49.166 155.472 48.782C155.868 48.398 156.066 47.882 156.066 47.234C156.066 46.586 155.874 46.082 155.49 45.722C155.106 45.35 154.524 45.164 153.744 45.164H151.476V49.358ZM166.143 56.126C164.979 56.126 163.905 55.856 162.921 55.316C161.949 54.764 161.175 54.002 160.599 53.03C160.035 52.046 159.753 50.942 159.753 49.718C159.753 48.494 160.035 47.396 160.599 46.424C161.175 45.452 161.949 44.696 162.921 44.156C163.905 43.604 164.979 43.328 166.143 43.328C167.319 43.328 168.393 43.604 169.365 44.156C170.349 44.696 171.123 45.452 171.687 46.424C172.251 47.396 172.533 48.494 172.533 49.718C172.533 50.942 172.251 52.046 171.687 53.03C171.123 54.002 170.349 54.764 169.365 55.316C168.393 55.856 167.319 56.126 166.143 56.126ZM166.143 54.344C166.971 54.344 167.709 54.158 168.357 53.786C169.005 53.402 169.509 52.862 169.869 52.166C170.241 51.458 170.427 50.642 170.427 49.718C170.427 48.794 170.241 47.984 169.869 47.288C169.509 46.592 169.005 46.058 168.357 45.686C167.709 45.314 166.971 45.128 166.143 45.128C165.315 45.128 164.577 45.314 163.929 45.686C163.281 46.058 162.771 46.592 162.399 47.288C162.039 47.984 161.859 48.794 161.859 49.718C161.859 50.642 162.039 51.458 162.399 52.166C162.771 52.862 163.281 53.402 163.929 53.786C164.577 54.158 165.315 54.344 166.143 54.344ZM190.483 43.49L186.775 56H184.453L181.825 46.532L179.035 56L176.731 56.018L173.185 43.49H175.363L177.955 53.678L180.763 43.49H183.067L185.677 53.624L188.287 43.49H190.483Z" fill="#EB8347"/>
</svg>
